<?xml version="1.0" encoding="UTF-8" standalone="no"?>
<!-- Generator: Adobe Illustrator 16.0.4, SVG Export Plug-In . SVG Version: 6.00 Build 0)  -->

<svg
   xmlns:dc="http://purl.org/dc/elements/1.1/"
   xmlns:cc="http://creativecommons.org/ns#"
   xmlns:rdf="http://www.w3.org/1999/02/22-rdf-syntax-ns#"
   xmlns:svg="http://www.w3.org/2000/svg"
   xmlns="http://www.w3.org/2000/svg"
   xmlns:sodipodi="http://sodipodi.sourceforge.net/DTD/sodipodi-0.dtd"
   xmlns:inkscape="http://www.inkscape.org/namespaces/inkscape"
   version="1.1"
   id="Layer_1"
   x="0px"
   y="0px"
   width="757.25311"
   height="376.6622"
   viewBox="0 0 757.25311 376.6622"
   enable-background="new 0 0 595 842"
   xml:space="preserve"
   inkscape:version="0.91 r13725"
   sodipodi:docname="mibig_newlogo4a.svg"><metadata
     id="metadata4362"><rdf:RDF><cc:Work
         rdf:about=""><dc:format>image/svg+xml</dc:format><dc:type
           rdf:resource="http://purl.org/dc/dcmitype/StillImage" /><dc:title></dc:title></cc:Work></rdf:RDF></metadata><defs
     id="defs4360" /><sodipodi:namedview
     pagecolor="#ffffff"
     bordercolor="#666666"
     borderopacity="1"
     objecttolerance="10"
     gridtolerance="10"
     guidetolerance="10"
     inkscape:pageopacity="0"
     inkscape:pageshadow="2"
     inkscape:window-width="1920"
     inkscape:window-height="1151"
     id="namedview4358"
     showgrid="false"
     fit-margin-top="0"
     fit-margin-left="0"
     fit-margin-right="0"
     fit-margin-bottom="0"
     inkscape:zoom="0.83391572"
     inkscape:cx="348.0501"
     inkscape:cy="8.7203711"
     inkscape:window-x="0"
     inkscape:window-y="25"
     inkscape:window-maximized="1"
     inkscape:current-layer="Layer_1" /><g
     id="g4280"
     transform="matrix(10.258508,0,0,10.258508,-416.38808,-275.14344)"><path
       style="fill:#0e75bc"
       inkscape:connector-curvature="0"
       id="path4284"
       d="M 57.327,51.549 56.87,44.003 c -0.08,-1.182 -0.133,-2.148 -0.133,-3.76 l -0.027,0 c -0.215,1.584 -0.349,2.523 -0.645,3.518 l -2.283,7.788 -4.082,0 -1.986,-7.573 c -0.27,-1.047 -0.485,-2.094 -0.618,-3.76 l -0.027,0 c 0,1.666 0,2.686 -0.081,3.867 l -0.375,7.466 -4.834,0 1.827,-18.718 5.881,0 1.826,7.412 c 0.27,1.047 0.457,2.041 0.618,3.545 l 0.027,0 c 0.161,-1.424 0.375,-2.337 0.726,-3.813 l 1.907,-7.144 5.693,0 1.716,18.718 -4.673,0" /></g><g
     id="g4286"
     transform="matrix(10.258508,0,0,10.258508,-416.38808,-275.14344)"><polyline
       style="fill:#0e75bc"
       id="polyline4290"
       points="65.127,51.549 65.127,32.907 69.8,32.477 69.8,51.549 65.127,51.549   " /></g><g
     id="g4292"
     transform="matrix(10.258508,0,0,10.258508,-416.38808,-275.14344)"><path
       style="fill:#0e75bc"
       inkscape:connector-curvature="0"
       id="path4296"
       d="m 81.164,51.549 -7.601,0 0,-18.717 8.298,0 c 2.713,0 4.915,1.154 4.915,4.592 0,1.692 -0.697,3.465 -2.767,4.136 1.828,0.483 3.438,1.96 3.438,4.216 0,3.409 -2.013,5.773 -6.283,5.773 m -2.793,-14.77 0,3.25 1.906,0 c 1.154,0 1.559,-0.807 1.559,-1.772 0,-0.968 -0.483,-1.478 -1.611,-1.478 l -1.854,0 z m 1.772,7.063 -1.771,0 0,3.706 1.826,0 c 1.209,0 1.719,-0.779 1.719,-1.934 -0.001,-0.94 -0.297,-1.772 -1.774,-1.772 z" /></g><polyline
     style="fill:#0e75bc"
     id="polyline4306"
     points="89.766,51.549 89.766,37.907 94.438,37.477 94.438,51.549 89.766,51.549    "
     transform="matrix(10.258508,0,0,10.258508,-416.38808,-275.14344)" /><path
     style="fill:#0e75bc"
     inkscape:connector-curvature="0"
     id="path4312"
     d="m 665.40236,256.98589 c -31.95525,0 -54.00078,-10.19696 -70.25026,-32.78619 -12.95649,-18.16782 -18.17807,-36.63314 -18.17807,-62.80259 0,-41.04429 16.25973,-76.302783 48.20472,-92.839498 14.32088,-7.447677 26.44644,-9.919977 43.81409,-9.919977 25.06154,0 48.49197,8.258099 66.93677,24.230596 L 708.66249,113.44884 C 698.46554,103.52887 684.1344,98.563748 669.5468,98.563748 c -25.89247,0 -36.35615,17.911352 -36.35615,60.894502 0,38.28475 11.29462,57.02705 34.14031,57.02705 6.33976,0 12.67952,-0.5437 17.91136,-2.74928 l 0,-30.30364 -23.40992,0 -5.50882,-39.11569 78.23139,0 0,93.66018 c -22.03528,13.5002 -44.34753,19.00902 -69.15261,19.00902" /><path
     d="m 524.15297,74.343411 c -17.66515,0 -32.37585,-14.37217 -32.37585,-32.037321 0,-17.654892 15.03897,-32.047579 33.34015,-32.047579 17.98316,0 32.05783,14.382428 32.05783,32.047579 0,17.665151 -14.72095,32.037321 -33.02213,32.037321"
     id="path4320"
     inkscape:connector-curvature="0"
     style="fill:#818285" /><polyline
     style="fill:#818285"
     id="polyline4326"
     points="63.473,62.099 70.747,57.832 63.473,53.564 63.473,55.701 55.816,55.701 58.697,57.414    59.424,57.832 58.736,58.251 55.543,60.138 55.554,60.201 63.473,60.201 63.473,62.099  "
     transform="matrix(10.258508,0,0,10.258508,-416.38808,-275.14344)" /><polyline
     style="fill:#0e75bc"
     id="polyline4332"
     points="57.223,57.832 50.473,53.873 50.473,55.701 41.777,55.701 42.554,60.201 50.473,60.201    50.473,61.792 57.223,57.832  "
     transform="matrix(10.258508,0,0,10.258508,-416.38808,-275.14344)" /><polyline
     style="fill:#0e75bc"
     id="polyline4338"
     points="80.747,57.832 73.473,53.564 73.473,55.701 68.816,55.701 71.697,57.414 72.424,57.832    71.736,58.251 68.543,60.138 68.554,60.201 73.473,60.201 73.473,62.099 80.747,57.832  "
     transform="matrix(10.258508,0,0,10.258508,-416.38808,-275.14344)" /><polyline
     style="fill:#818285"
     id="polyline4344"
     points="86.723,62.099 93.997,57.832 86.723,53.564 86.723,55.701 79.066,55.701 81.947,57.414    82.674,57.832 81.986,58.251 78.793,60.138 78.804,60.201 86.723,60.201 86.723,62.099  "
     transform="matrix(10.258508,0,0,10.258508,-416.38808,-275.14344)" /><polyline
     style="fill:#0e75bc"
     id="polyline4350"
     points="103.997,57.832 96.723,53.564 96.723,55.701 92.066,55.701 94.947,57.414 95.674,57.832    94.986,58.251 91.793,60.138 91.804,60.201 96.723,60.201 96.723,62.099 103.997,57.832  "
     transform="matrix(10.258508,0,0,10.258508,-416.38808,-275.14344)" /><polyline
     style="fill:#818285"
     id="polyline4356"
     points="114.027,57.71 106.753,53.444 106.753,55.58 102.097,55.58 104.978,57.292 105.704,57.71    105.017,58.13 101.823,60.017 101.834,60.08 106.753,60.08 106.753,61.979 114.027,57.71  "
     transform="matrix(10.258508,0,0,10.258508,-416.38808,-275.14344)" /></svg>